<svg xmlns="http://www.w3.org/2000/svg" version="1.1" xmlns:xlink="http://www.w3.org/1999/xlink" width="512" height="512" x="0" y="0" viewBox="0 0 512 512" xml:space="preserve"><g><path d="m369.743 27.083-.001-.008c-52.833 0-87.335 0-140.7.008H8.348c0 59.119 32.948 112.279 84.962 132.644l54.565.601c4.255 15.748 10.358 30.541 20.24 45.331 8.626 10.758 16.175 20.441 28.034 27.97 7.548 4.304 15.094 8.607 23.72 11.834l4.083 1.018v32.395h17.172v146.688l-.002.659c-26.298 6.637-45.758 30.399-45.758 58.702h121.373c0-27.99-19.033-51.541-44.89-58.476l-.001-.884V278.876h17.253v-32.674c10.997-3.039 21.251-7.745 31.045-14.724 10.782-8.606 19.408-18.288 26.956-30.122 4.313-6.453 7.548-13.984 10.782-20.441 2.66-7.024 4.923-14.187 6.846-21.452l53.961.263c52.016-20.363 84.964-73.522 84.964-132.642h-133.91zM142.237 128.209H95.746c-27.211-16.33-47.957-44.647-52.496-72.964h97.898l1.089 72.964zm228.76-72.964h97.755c-4.541 28.317-25.287 56.634-52.499 72.964h-45.365l.109-72.964z" style="" fill="#ffcf00" data-original="#ffcf00"></path><path d="M141.959 128.179H96.796V373.08l20.98-19.858 23.724 20.379z" style="" fill="#0088ff" data-original="#0088ff"></path><path d="m369.743 27.083-.001-.008c-43.41 0-74.452 0-113.742.004v457.845h60.737c0-27.99-19.033-51.541-44.89-58.476l-.001-.884V278.876h17.253v-32.674c10.997-3.039 21.251-7.745 31.045-14.724 10.782-8.606 19.408-18.288 26.956-30.122 4.313-6.453 7.548-13.984 10.782-20.441 2.66-7.024 4.923-14.187 6.846-21.452l53.961.264c52.015-20.364 84.963-73.523 84.963-132.644H369.743zm2.828 28.162h96.18c-4.541 28.317-25.287 56.634-52.498 72.964h-45.365" style="" fill="#ecb300" data-original="#ecb300"></path><path d="M416.16 128.179h-45.163V373.08l20.981-19.858 23.725 20.379z" style="" fill="#005fd3" data-original="#005fd3"></path><path d="M503.652 18.735H370.099a7.021 7.021 0 0 0-.356-.008H364.727c-50.046 0-84.027 0-135.686.008a8.349 8.349 0 0 0 .002 16.696c48.733-.007 81.74-.008 127.338-.008v122.943c-1.798 6.658-3.867 13.111-6.157 19.201-.747 1.5-1.496 3.054-2.258 4.637-2.397 4.98-4.877 10.13-7.807 14.513a4.743 4.743 0 0 0-.097.149c-7.077 11.096-15.007 19.981-24.946 27.944-8.621 6.111-17.86 10.477-28.24 13.344l-.007.002c-5.309 1.467-10.815 2.534-16.819 3.261h-13.521a8.45 8.45 0 0 0-1.178.083c-1.685.24-3.595.362-5.678.362-5.021 0-10.484-.7-15.264-1.378l-8.431-2.103-.008-.002-3.611-.902c-7.752-2.946-14.628-6.855-21.9-11.002-10.183-6.51-17.022-15.044-24.932-24.917l-.672-.839c-9.717-14.602-15.659-27.775-18.648-41.354l-2.084-123.936h23.758c4.61 0 8.348-3.736 8.348-8.348s-3.738-8.348-8.348-8.348h-31.885a7.153 7.153 0 0 0-.721 0H8.348A8.35 8.35 0 0 0 0 27.083c0 30.797 8.395 60.302 24.275 85.328 15.793 24.885 37.959 43.624 64.173 54.334v206.336a8.348 8.348 0 0 0 14.087 6.064l15.512-14.683 18.013 15.474a8.348 8.348 0 0 0 13.789-6.317l.341-182.045c3.058 6.108 6.697 12.307 10.985 18.725.135.201.278.396.429.585l.897 1.12c8.515 10.627 16.557 20.665 29.176 28.676.111.07.239.147.354.211 7.327 4.178 14.894 8.493 23.575 11.881v26.108a8.348 8.348 0 0 0 8.348 8.348h8.825V420.04c-27.246 9.695-45.761 35.506-45.761 64.885a8.348 8.348 0 0 0 8.348 8.348h121.373a8.347 8.347 0 0 0 8.348-8.348c0-28.93-18.163-54.619-44.892-64.564V287.225h8.905a8.347 8.347 0 0 0 8.348-8.348v-26.506c9.924-3.355 18.983-7.995 27.542-14.093.124-.089.245-.18.363-.275 11.48-9.163 20.614-19.36 28.739-32.085 3.391-5.09 6.133-10.693 8.558-15.726v182.889a8.349 8.349 0 0 0 14.087 6.064l15.514-14.683 18.015 15.474a8.348 8.348 0 0 0 13.788-6.317l.386-207.239c25.826-10.77 47.673-29.362 63.287-53.967C503.605 87.385 512 57.879 512 27.083a8.348 8.348 0 0 0-8.348-8.348zM138.844 119.83H98.061c-21.246-13.409-37.774-34.577-44.327-56.238h84.164l.946 56.238zM16.922 35.431h120.504l.193 11.467H43.248a8.349 8.349 0 0 0-8.243 9.67c4.675 29.161 25.499 59.004 53.442 76.932v14.999c-41.57-19.893-68.798-62.871-71.525-113.068zm106.293 311.458a8.326 8.326 0 0 0-5.438-2.016 8.334 8.334 0 0 0-5.74 2.285l-6.893 6.525V136.557h28.452l-.41 218.898-9.971-8.566zm140.282 79.57a8.348 8.348 0 0 0 6.185 8.053c20.054 5.378 34.784 22.074 38.033 42.065H204.378c3.271-20.304 18.306-37.091 38.786-42.261a8.346 8.346 0 0 0 6.305-8.066l.002-139.025h14.025V426.459zm17.254-155.929H232.3v-13.478c5.293.747 11.368 1.509 17.375 1.509 2.669 0 5.103-.147 7.417-.445h13.454c.325 0 .651-.02.974-.057a142.16 142.16 0 0 0 9.23-1.385v13.855h.001zm133.188-150.7h-40.862V63.593h85.19c-6.554 21.661-23.083 42.829-44.328 56.237zm-16.521 227.059a8.322 8.322 0 0 0-5.438-2.016 8.336 8.336 0 0 0-5.74 2.285l-6.895 6.526V136.557h28.453l-.039 20.64a8.339 8.339 0 0 0-.01 4.976l-.361 193.281-9.97-8.565zm27.053-198.831.028-15.183c27.463-17.991 47.872-47.48 52.494-76.309a8.347 8.347 0 0 0-8.243-9.67h-95.676V35.431h122.003c-2.704 49.825-29.553 92.544-70.606 112.627z" style="" fill="#3c3a41" data-original="#3c3a41"></path></g></svg>